<?xml version="1.0" encoding="UTF-8"?>
<svg id="Layer_2" data-name="Layer 2" xmlns="http://www.w3.org/2000/svg" xmlns:xlink="http://www.w3.org/1999/xlink" viewBox="0 0 285.32 194.75">
  <defs>
    <style>
      .cls-1 {
        stroke: url(#New_Gradient_Swatch);
      }

      .cls-1, .cls-2 {
        stroke-miterlimit: 10;
      }

      .cls-2 {
        stroke: url(#New_Gradient_Swatch-2);
      }

      .cls-3 {
        font-family: ACaslonPro-BoldItalic, 'Adobe Caslon Pro';
        font-size: 48px;
        font-style: italic;
        font-weight: 700;
      }
    </style>
    <linearGradient id="New_Gradient_Swatch" data-name="New Gradient Swatch" x1="142.97" y1="7.21" x2="142.97" y2="111.41" gradientUnits="userSpaceOnUse">
      <stop offset="0" stop-color="#831100"/>
      <stop offset="1" stop-color="#18008c"/>
    </linearGradient>
    <linearGradient id="New_Gradient_Swatch-2" data-name="New Gradient Swatch" x1="149.99" y1="58.14" x2="149.99" y2="164.13" xlink:href="#New_Gradient_Swatch"/>
  </defs>
  <g id="Layer_1-2" data-name="Layer 1">
    <path d="m37.06,22.84l-5.76,16.32c6.4.16,15.04.96,22.08,4.32,12.48,5.92,15.84,15.84,15.84,26.88-.8,16.16-16.64,39.84-48.48,39.84-8.8,0-19.2-2.24-19.2-9.44,0-3.52,1.92-6.24,4.8-6.24s5.44,1.44,7.84,4.16c2.08,2.4,5.6,3.52,11.68,3.52,13.44,0,24-13.76,24-26.08,0-8-2.72-12.64-7.2-15.68-3.52-2.4-10.4-4.16-16.64-4.16-4,0-5.6-.16-6.24-.64-.96-.96-1.12-1.6-.64-3.04l15.04-44.16c.48-1.28,1.28-1.44,2.4-1.44h33.92c5.12,0,6.88-2.72,9.6-6.4.64-.8,1.44-.8,2.72,0,1.92,1.28,2.24,1.76,1.6,2.72l-9.12,17.92c-.8,1.44-1.76,1.6-4.8,1.6h-33.44Z"/>
    <path class="cls-1" d="m113.02,61.86c-.9,3.3-4.35,14.4-4.35,21.15,0,17.4,13.65,19.2,17.4,19.2,7.65,0,15-2.25,19.65-6,7.2-5.7,12.3-13.8,16.65-30.45l9.15-34.5c3.6-12.6,3-17.7-2.1-17.7h-3.9c-1.35,0-1.5-.45-1.35-1.2l.45-3.15c.3-1.05.6-1.5,1.95-1.5,1.8,0,7.5.45,16.05.45s12.15-.45,13.65-.45c1.35,0,1.5.45,1.35,1.8l-.45,2.85c-.15.75-.45,1.2-1.65,1.2h-1.65c-4.65,0-7.95,6.15-11.25,16.35l-11.4,36.9c-7.95,25.8-18.75,44.1-49.8,44.1-18.75,0-33.15-8.85-33.15-27.45,0-6.3,2.25-15.6,3.15-18.75l12.75-41.85c2.1-6.75-.15-9.3-3.75-9.3h-5.4c-.75,0-1.2-.3-1.05-1.2l.75-3.45c.15-.9.45-1.2,1.95-1.2,1.8,0,7.05.45,22.95.45,12.15,0,17.25-.45,18.75-.45,1.2,0,1.5.45,1.35,1.8l-.6,2.85c-.15.75-.6,1.2-1.5,1.2h-3.75c-2.1,0-6.15.6-8.55,8.25l-12.3,40.05Z"/>
    <path class="cls-2" d="m181.16,90.14c-.15.6-.45.9-1.2.9l-3.3-.15c-1.05,0-1.2-.45-1.2-1.35.45-6-1.2-23.4-16.05-23.4-8.4,0-12.45,7.8-12.45,13.2,0,10.2,6.9,15,13.8,22.05,6.9,6.9,17.1,15.3,17.1,32.7,0,18.9-13.95,29.55-31.65,29.55-9.6,0-16.5-5.55-20.7-10.5-1.35-1.65-3.3-1.5-4.05-.6-.9,1.2-2.85,3.45-3.9,5.7-.3.6-.6.9-1.5.45l-1.95-.75c-.75-.3-.9-.45-.6-1.5l11.1-32.7c.3-.75.75-.75,1.35-.6l3.3.6c.45.15.75.6.6,1.5-2.7,20.7,7.35,30.9,16.8,30.9s14.85-7.2,14.85-14.55c0-9-7.35-14.85-13.95-22.05-9.3-10.2-17.7-18.15-17.7-34.5,0-10.8,8.55-26.4,30-26.4,8.25,0,15.3,5.1,17.7,6.75.75.45,1.2.45,2.1.45s1.8-1.8,2.4-4.95c.15-.45.45-.6,1.5-.45l1.95.15c.9.15,1.2.45,1.05,1.05l-5.4,28.5Z"/>
    <path d="m261.65,163.93c-.3.75-.75.9-1.65.75l-3.15-.75c-.45-.15-.75-.45-.45-1.2.15-.75.45-1.5.45-2.55,0-.9-.75-2.1-2.25-2.1-1.2,0-3.3.45-5.85,1.65-2.7,1.35-12.6,3.9-20.85,3.9-24.3,0-39.6-13.8-39.6-34.65,0-24.3,7.2-38.1,21-53.1,9.75-10.65,23.25-17.25,40.5-17.25,7.2,0,14.4,1.35,19.8,4.95,1.95,1.35,5.1,3.45,6.75,3.45,1.95,0,3.3-1.2,3.9-3.15.3-.9.75-1.2,1.35-1.05l3.15.6c.45.15.75.6.45,1.5l-7.95,31.8c-.3.9-.6,1.2-1.65.9l-3.3-.3c-.75,0-1.05-.6-.9-1.5,1.35-14.7-3.9-30.6-20.4-30.6-9.6,0-17.25,4.8-25.8,17.1-11.25,16.5-14.4,35.1-14.4,47.1,0,20.25,12.75,26.85,19.8,26.85,10.35,0,25.05-3.15,36.15-26.1.3-.75.9-.75,1.5-.6l3.3.9c.9.3.9.6.75,1.35l-10.65,32.1Z"/>
    <text class="cls-3" transform="translate(1.54 161.15)"><tspan x="0" y="0">2024</tspan></text>
  </g>
</svg>